<svg width="17" height="12" viewBox="0 0 17 12" fill="none" xmlns="http://www.w3.org/2000/svg">
<path d="M3.312 4.34C3.312 4.396 3.288 4.444 3.24 4.484C3.192 4.516 3.136 4.544 3.072 4.568C3.008 4.592 2.944 4.612 2.88 4.628C2.816 4.636 2.764 4.64 2.724 4.64C2.604 4.64 2.524 4.632 2.484 4.616C2.444 4.6 2.412 4.592 2.388 4.592C2.188 4.592 2.028 4.608 1.908 4.64C1.788 4.672 1.692 4.724 1.62 4.796C1.556 4.868 1.512 4.96 1.488 5.072C1.472 5.176 1.464 5.304 1.464 5.456C1.464 5.712 1.472 5.916 1.488 6.068C1.512 6.22 1.532 6.344 1.548 6.44C1.572 6.536 1.592 6.612 1.608 6.668C1.632 6.716 1.644 6.764 1.644 6.812C1.644 6.876 1.608 6.944 1.536 7.016C1.472 7.088 1.412 7.124 1.356 7.124C1.26 7.124 1.172 7.04 1.092 6.872C1.02 6.696 0.956 6.492 0.9 6.26C0.852 6.02 0.812 5.784 0.78 5.552C0.748 5.32 0.732 5.144 0.732 5.024C0.732 4.888 0.744 4.76 0.768 4.64C0.792 4.512 0.824 4.404 0.864 4.316C0.904 4.22 0.948 4.144 0.996 4.088C1.044 4.032 1.092 4.004 1.14 4.004C1.18 4.004 1.212 4.02 1.236 4.052C1.26 4.076 1.28 4.108 1.296 4.148C1.312 4.18 1.328 4.212 1.344 4.244C1.368 4.268 1.396 4.28 1.428 4.28C1.5 4.28 1.616 4.244 1.776 4.172C1.936 4.1 2.132 4.064 2.364 4.064C2.58 4.064 2.74 4.072 2.844 4.088C2.956 4.096 3.064 4.12 3.168 4.16C3.192 4.168 3.22 4.188 3.252 4.22C3.292 4.244 3.312 4.284 3.312 4.34ZM11.959 2.80859C11.9629 2.87891 11.9648 2.97852 11.9648 3.10742C11.9375 3.12695 11.8965 3.14648 11.8418 3.16602C11.7871 3.18555 11.7305 3.20312 11.6719 3.21875C11.5469 3.25 11.4434 3.2832 11.3613 3.31836C11.2793 3.34961 11.2207 3.39453 11.1855 3.45312C11.084 3.61719 10.9902 3.78906 10.9043 3.96875C10.8184 4.14844 10.7227 4.36133 10.6172 4.60742C10.4727 4.93945 10.3379 5.23047 10.2129 5.48047C10.0918 5.73047 9.94531 5.99219 9.77344 6.26562C9.97656 6.51953 10.1582 6.71094 10.3184 6.83984C10.4785 6.96875 10.6426 7.0332 10.8105 7.0332C10.9785 7.0332 11.1523 6.96289 11.332 6.82227C11.5117 6.67773 11.709 6.44922 11.9238 6.13672L12.2695 6.38867C12.125 6.98633 11.916 7.43164 11.6426 7.72461C11.3691 8.01758 11.0586 8.16406 10.7109 8.16406C10.4219 8.16406 10.1289 8.07031 9.83203 7.88281C9.53906 7.69531 9.27734 7.4375 9.04688 7.10938C8.66406 7.48047 8.28711 7.74805 7.91602 7.91211C7.54492 8.07227 7.125 8.15234 6.65625 8.15234C6.16016 8.15234 5.72852 8.06055 5.36133 7.87695C4.99414 7.69336 4.71289 7.44727 4.51758 7.13867C4.32227 6.83008 4.22461 6.49414 4.22461 6.13086C4.22461 5.7832 4.29492 5.4707 4.43555 5.19336C4.58008 4.91602 4.79102 4.65234 5.06836 4.40234C5.34961 4.15234 5.72852 3.87109 6.20508 3.55859C5.91211 3.23047 5.69531 2.93164 5.55469 2.66211C5.41406 2.39258 5.34375 2.13672 5.34375 1.89453C5.34375 1.58203 5.45117 1.30078 5.66602 1.05078C5.88086 0.800781 6.15625 0.605469 6.49219 0.464844C6.82812 0.324219 7.16797 0.253906 7.51172 0.253906C7.78906 0.253906 8.04102 0.302734 8.26758 0.400391C8.49805 0.498047 8.68164 0.652344 8.81836 0.863281C8.95508 1.07031 9.02344 1.33008 9.02344 1.64258C9.02344 1.8457 8.96094 2.03125 8.83594 2.19922C8.71094 2.36719 8.53516 2.53125 8.30859 2.69141C8.08594 2.84766 7.75781 3.05664 7.32422 3.31836C7.58203 3.60742 7.9375 4.03516 8.39062 4.60156C8.96484 5.30078 9.32617 5.73633 9.47461 5.9082C9.82227 5.29883 10.0742 4.64453 10.2305 3.94531C10.2773 3.82812 10.3008 3.73242 10.3008 3.6582C10.3008 3.46289 10.0547 3.28516 9.5625 3.125C9.55469 3.0625 9.55078 3.01172 9.55078 2.97266C9.55078 2.94922 9.55469 2.89453 9.5625 2.80859H11.959ZM7.06641 3.02539C7.44141 2.81055 7.7207 2.60156 7.9043 2.39844C8.0918 2.19141 8.18555 1.9668 8.18555 1.72461C8.18555 1.56445 8.14648 1.4043 8.06836 1.24414C7.99023 1.08008 7.88281 0.945312 7.74609 0.839844C7.60938 0.730469 7.45898 0.675781 7.29492 0.675781C7.10742 0.675781 6.9375 0.714844 6.78516 0.792969C6.63281 0.871094 6.51367 0.976562 6.42773 1.10938C6.3418 1.23828 6.29883 1.37891 6.29883 1.53125C6.29883 1.72656 6.36328 1.94727 6.49219 2.19336C6.62109 2.43555 6.8125 2.71289 7.06641 3.02539ZM7.37695 7.40234C7.62695 7.40234 7.85547 7.35547 8.0625 7.26172C8.27344 7.16406 8.50195 7.00195 8.74805 6.77539C7.75195 5.49023 6.99414 4.52734 6.47461 3.88672C6.08789 4.15234 5.80469 4.41016 5.625 4.66016C5.44531 4.91016 5.35547 5.17383 5.35547 5.45117C5.35547 5.79883 5.44141 6.12305 5.61328 6.42383C5.78516 6.7207 6.02539 6.95898 6.33398 7.13867C6.64258 7.31445 6.99023 7.40234 7.37695 7.40234ZM15.8544 6.944C15.8544 7.032 15.8224 7.092 15.7584 7.124C15.6944 7.156 15.6624 7.2 15.6624 7.256C15.6544 7.248 15.6704 7.292 15.7104 7.388C15.7504 7.484 15.7864 7.584 15.8184 7.688C15.8744 7.904 15.9224 8.092 15.9624 8.252C16.0104 8.412 16.0464 8.56 16.0704 8.696C16.1024 8.832 16.1264 8.968 16.1424 9.104C16.1584 9.24 16.1664 9.392 16.1664 9.56C16.1664 9.728 16.1384 9.9 16.0824 10.076C16.0264 10.252 15.9464 10.408 15.8424 10.544C15.7384 10.68 15.6104 10.792 15.4584 10.88C15.3064 10.968 15.1344 11.012 14.9424 11.012C14.6464 11.012 14.4104 10.952 14.2344 10.832C14.0664 10.712 13.9384 10.576 13.8504 10.424C13.7624 10.272 13.7064 10.12 13.6824 9.968C13.6584 9.824 13.6464 9.728 13.6464 9.68C13.6464 9.384 13.7224 9.088 13.8744 8.792C14.0264 8.496 14.1944 8.228 14.3784 7.988C14.5624 7.748 14.7304 7.548 14.8824 7.388C15.0344 7.228 15.1104 7.136 15.1104 7.112L14.9784 6.716C14.8984 6.812 14.8264 6.92 14.7624 7.04C14.7064 7.152 14.6424 7.26 14.5704 7.364C14.5064 7.46 14.4264 7.544 14.3304 7.616C14.2424 7.68 14.1304 7.712 13.9944 7.712C13.8504 7.712 13.7064 7.668 13.5624 7.58C13.4184 7.492 13.2904 7.36 13.1784 7.184C13.0664 7.008 12.9744 6.796 12.9024 6.548C12.8384 6.3 12.8064 6.012 12.8064 5.684C12.8064 5.5 12.8344 5.272 12.8904 5C12.9464 4.72 13.0344 4.452 13.1544 4.196C13.2744 3.94 13.4224 3.724 13.5984 3.548C13.7824 3.364 13.9944 3.272 14.2344 3.272C14.3704 3.272 14.4944 3.296 14.6064 3.344C14.7264 3.392 14.7864 3.452 14.7864 3.524C14.7864 3.588 14.7744 3.64 14.7504 3.68C14.7264 3.72 14.6944 3.76 14.6544 3.8C14.6304 3.784 14.6024 3.768 14.5704 3.752C14.5464 3.736 14.5104 3.728 14.4624 3.728C14.2864 3.728 14.1264 3.808 13.9824 3.968C13.8464 4.12 13.7304 4.312 13.6344 4.544C13.5384 4.768 13.4624 5.004 13.4064 5.252C13.3584 5.5 13.3344 5.716 13.3344 5.9C13.3344 6.308 13.4024 6.62 13.5384 6.836C13.6744 7.044 13.8184 7.148 13.9704 7.148C14.0424 7.148 14.1184 7.096 14.1984 6.992C14.2864 6.88 14.3664 6.76 14.4384 6.632C14.5184 6.496 14.5864 6.368 14.6424 6.248C14.6984 6.128 14.7304 6.056 14.7384 6.032C14.7544 5.952 14.7624 5.86 14.7624 5.756C14.7624 5.668 14.7584 5.572 14.7504 5.468C14.7504 5.356 14.7504 5.244 14.7504 5.132C14.7504 4.924 14.7664 4.752 14.7984 4.616C14.8304 4.472 14.9104 4.4 15.0384 4.4C15.1664 4.4 15.2584 4.44 15.3144 4.52C15.3704 4.592 15.3984 4.68 15.3984 4.784C15.3984 4.856 15.3944 4.944 15.3864 5.048C15.3864 5.144 15.3864 5.24 15.3864 5.336C15.3864 5.424 15.3824 5.504 15.3744 5.576C15.3744 5.64 15.3744 5.68 15.3744 5.696C15.3744 5.744 15.3784 5.816 15.3864 5.912C15.4024 6 15.4144 6.092 15.4224 6.188C15.4384 6.276 15.4504 6.36 15.4584 6.44C15.4744 6.512 15.4864 6.56 15.4944 6.584C15.5024 6.608 15.5144 6.644 15.5304 6.692C15.5464 6.74 15.5624 6.776 15.5784 6.8C15.5864 6.784 15.6024 6.768 15.6264 6.752C15.6504 6.728 15.6704 6.708 15.6864 6.692C15.7264 6.716 15.7624 6.764 15.7944 6.836C15.8344 6.9 15.8544 6.936 15.8544 6.944ZM15.4464 8.468C15.4144 8.34 15.3784 8.212 15.3384 8.084C15.2984 7.956 15.2584 7.824 15.2184 7.688C15.0824 7.856 14.9504 8.016 14.8224 8.168C14.7024 8.328 14.5904 8.484 14.4864 8.636C14.3904 8.788 14.3104 8.944 14.2464 9.104C14.1904 9.272 14.1624 9.448 14.1624 9.632C14.1624 9.88 14.2304 10.084 14.3664 10.244C14.5104 10.404 14.6664 10.484 14.8344 10.484C15.0184 10.484 15.1904 10.416 15.3504 10.28C15.5184 10.144 15.6024 9.948 15.6024 9.692C15.6024 9.524 15.5984 9.384 15.5904 9.272C15.5824 9.16 15.5704 9.06 15.5544 8.972C15.5464 8.892 15.5304 8.812 15.5064 8.732C15.4904 8.66 15.4704 8.572 15.4464 8.468Z" fill="white"/>
</svg>
